<?xml version="1.0" encoding="UTF-8"?>
<svg xmlns="http://www.w3.org/2000/svg" viewBox="0 0 1280 120" width="1280" height="120" role="img" aria-labelledby="ftitle">
  <title id="ftitle">Cael Findley — footer</title>
  <defs>
    <linearGradient id="fbg" x1="0%" y1="0%" x2="100%" y2="100%">
      <stop offset="0%" stop-color="#ffffff"/>
      <stop offset="100%" stop-color="#f7f0f0"/>
    </linearGradient>
    <radialGradient id="fmesh" cx="50%" cy="50%" r="50%">
      <stop offset="0%" stop-color="#6a2020" stop-opacity="0.35"/>
      <stop offset="100%" stop-color="#ffffff" stop-opacity="0"/>
    </radialGradient>
    <linearGradient id="ffade" x1="0" y1="0" x2="0" y2="1">
      <stop offset="0%" stop-color="white" stop-opacity="0"/>
      <stop offset="28%" stop-color="white" stop-opacity="1"/>
      <stop offset="100%" stop-color="white" stop-opacity="1"/>
    </linearGradient>
    <mask id="ffadeMask" maskUnits="userSpaceOnUse" x="0" y="0" width="1280" height="120">
      <rect width="1280" height="120" fill="url(#ffade)"/>
    </mask>
  </defs>
  <g mask="url(#ffadeMask)">
  <rect width="1280" height="120" fill="url(#fbg)"/>
  <rect width="1280" height="120" fill="url(#fmesh)">
    <animate attributeName="opacity" values="0.5;1;0.5" dur="12s" repeatCount="indefinite"/>
  </rect>
  <rect x="0" y="0" width="8" height="120" fill="#500000"/>
  <rect x="8" y="0" width="2" height="120" fill="#ffffff" opacity="0.55"/>
  <g stroke="#eadfe1" stroke-width="1" fill="none" opacity="0.45">
    <line x1="0" y1="0" x2="0" y2="120"/>
    <line x1="40" y1="0" x2="40" y2="120"/>
    <line x1="80" y1="0" x2="80" y2="120"/>
    <line x1="120" y1="0" x2="120" y2="120"/>
    <line x1="160" y1="0" x2="160" y2="120"/>
    <line x1="200" y1="0" x2="200" y2="120"/>
    <line x1="240" y1="0" x2="240" y2="120"/>
    <line x1="280" y1="0" x2="280" y2="120"/>
    <line x1="320" y1="0" x2="320" y2="120"/>
    <line x1="360" y1="0" x2="360" y2="120"/>
    <line x1="400" y1="0" x2="400" y2="120"/>
    <line x1="440" y1="0" x2="440" y2="120"/>
    <line x1="480" y1="0" x2="480" y2="120"/>
    <line x1="520" y1="0" x2="520" y2="120"/>
    <line x1="560" y1="0" x2="560" y2="120"/>
    <line x1="600" y1="0" x2="600" y2="120"/>
    <line x1="640" y1="0" x2="640" y2="120"/>
    <line x1="680" y1="0" x2="680" y2="120"/>
    <line x1="720" y1="0" x2="720" y2="120"/>
    <line x1="760" y1="0" x2="760" y2="120"/>
    <line x1="800" y1="0" x2="800" y2="120"/>
    <line x1="840" y1="0" x2="840" y2="120"/>
    <line x1="880" y1="0" x2="880" y2="120"/>
    <line x1="920" y1="0" x2="920" y2="120"/>
    <line x1="960" y1="0" x2="960" y2="120"/>
    <line x1="1000" y1="0" x2="1000" y2="120"/>
    <line x1="1040" y1="0" x2="1040" y2="120"/>
    <line x1="1080" y1="0" x2="1080" y2="120"/>
    <line x1="1120" y1="0" x2="1120" y2="120"/>
    <line x1="1160" y1="0" x2="1160" y2="120"/>
    <line x1="1200" y1="0" x2="1200" y2="120"/>
    <line x1="1240" y1="0" x2="1240" y2="120"/>
    <line x1="1280" y1="0" x2="1280" y2="120"/>
    <line x1="0" y1="0" x2="1280" y2="0"/>
    <line x1="0" y1="40" x2="1280" y2="40"/>
    <line x1="0" y1="80" x2="1280" y2="80"/>
    <line x1="0" y1="120" x2="1280" y2="120"/>
  </g>
  <line x1="64" y1="28" x2="1216" y2="28" stroke="#500000" stroke-width="1.25" opacity="0.55">
    <animate attributeName="opacity" values="0.35;0.8;0.35" dur="8s" repeatCount="indefinite"/>
  </line>

  <g fill="#500000">
    <circle cx="37" cy="61" r="0.51" opacity="0.10">
      <animateTransform attributeName="transform" type="translate" values="0,0; -18,-8; 0,0" dur="14s" begin="0.0s" repeatCount="indefinite"/>
    </circle>
    <circle cx="165" cy="43" r="0.66" opacity="0.13">
      <animateTransform attributeName="transform" type="translate" values="0,0; -11,-2; 0,0" dur="15s" begin="0.18s" repeatCount="indefinite"/>
    </circle>
    <circle cx="367" cy="75" r="0.82" opacity="0.16">
      <animateTransform attributeName="transform" type="translate" values="0,0; -4,3; 0,0" dur="16s" begin="0.36s" repeatCount="indefinite"/>
    </circle>
    <circle cx="643" cy="57" r="0.97" opacity="0.19">
      <animateTransform attributeName="transform" type="translate" values="0,0; 2,-7; 0,0" dur="17s" begin="0.54s" repeatCount="indefinite"/>
    </circle>
    <circle cx="993" cy="89" r="1.12" opacity="0.22">
      <animateTransform attributeName="transform" type="translate" values="0,0; 8,-2; 0,0" dur="18s" begin="0.72s" repeatCount="indefinite"/>
    </circle>
    <circle cx="177" cy="81" r="0.51" opacity="0.26">
      <animateTransform attributeName="transform" type="translate" values="0,0; 15,3; 0,0" dur="19s" begin="0.8999999999999999s" repeatCount="indefinite"/>
    </circle>
    <circle cx="675" cy="63" r="0.66" opacity="0.10">
      <animateTransform attributeName="transform" type="translate" values="0,0; -14,-7; 0,0" dur="20s" begin="1.08s" repeatCount="indefinite"/>
    </circle>
    <circle cx="1247" cy="42" r="0.82" opacity="0.13">
      <animateTransform attributeName="transform" type="translate" values="0,0; -7,-2; 0,0" dur="21s" begin="1.26s" repeatCount="indefinite"/>
    </circle>
    <circle cx="653" cy="74" r="0.97" opacity="0.16">
      <animateTransform attributeName="transform" type="translate" values="0,0; -0,3; 0,0" dur="22s" begin="1.44s" repeatCount="indefinite"/>
    </circle>
    <circle cx="133" cy="56" r="1.12" opacity="0.19">
      <animateTransform attributeName="transform" type="translate" values="0,0; 6,-7; 0,0" dur="23s" begin="1.6199999999999999s" repeatCount="indefinite"/>
    </circle>
    <circle cx="927" cy="88" r="0.51" opacity="0.22">
      <animateTransform attributeName="transform" type="translate" values="0,0; 12,-2; 0,0" dur="24s" begin="1.7999999999999998s" repeatCount="indefinite"/>
    </circle>
    <circle cx="555" cy="80" r="0.66" opacity="0.26">
      <animateTransform attributeName="transform" type="translate" values="0,0; -16,4; 0,0" dur="25s" begin="1.98s" repeatCount="indefinite"/>
    </circle>
    <circle cx="257" cy="62" r="0.82" opacity="0.10">
      <animateTransform attributeName="transform" type="translate" values="0,0; -10,-6; 0,0" dur="14s" begin="2.16s" repeatCount="indefinite"/>
    </circle>
    <circle cx="33" cy="44" r="0.97" opacity="0.13">
      <animateTransform attributeName="transform" type="translate" values="0,0; -3,-1; 0,0" dur="15s" begin="2.34s" repeatCount="indefinite"/>
    </circle>
    <circle cx="1123" cy="73" r="1.12" opacity="0.16">
      <animateTransform attributeName="transform" type="translate" values="0,0; 4,4; 0,0" dur="16s" begin="2.52s" repeatCount="indefinite"/>
    </circle>
    <circle cx="1047" cy="55" r="0.51" opacity="0.19">
      <animateTransform attributeName="transform" type="translate" values="0,0; 10,-6; 0,0" dur="17s" begin="2.6999999999999997s" repeatCount="indefinite"/>
    </circle>
    <circle cx="1045" cy="87" r="0.66" opacity="0.22">
      <animateTransform attributeName="transform" type="translate" values="0,0; 16,-1; 0,0" dur="18s" begin="2.88s" repeatCount="indefinite"/>
    </circle>
    <circle cx="1117" cy="69" r="0.82" opacity="0.26">
      <animateTransform attributeName="transform" type="translate" values="0,0; -12,4; 0,0" dur="19s" begin="3.06s" repeatCount="indefinite"/>
    </circle>
    <circle cx="23" cy="61" r="0.97" opacity="0.10">
      <animateTransform attributeName="transform" type="translate" values="0,0; -6,-6; 0,0" dur="20s" begin="3.2399999999999998s" repeatCount="indefinite"/>
    </circle>
    <circle cx="243" cy="43" r="1.12" opacity="0.13">
      <animateTransform attributeName="transform" type="translate" values="0,0; 1,-1; 0,0" dur="21s" begin="3.42s" repeatCount="indefinite"/>
    </circle>
    <circle cx="537" cy="75" r="0.51" opacity="0.16">
      <animateTransform attributeName="transform" type="translate" values="0,0; 8,4; 0,0" dur="22s" begin="0.0s" repeatCount="indefinite"/>
    </circle>
    <circle cx="905" cy="54" r="0.66" opacity="0.19">
      <animateTransform attributeName="transform" type="translate" values="0,0; 14,-5; 0,0" dur="23s" begin="0.18s" repeatCount="indefinite"/>
    </circle>
    <circle cx="107" cy="86" r="0.82" opacity="0.22">
      <animateTransform attributeName="transform" type="translate" values="0,0; -14,-0; 0,0" dur="24s" begin="0.36s" repeatCount="indefinite"/>
    </circle>
    <circle cx="623" cy="68" r="0.97" opacity="0.26">
      <animateTransform attributeName="transform" type="translate" values="0,0; -8,5; 0,0" dur="25s" begin="0.54s" repeatCount="indefinite"/>
    </circle>
    <circle cx="1213" cy="60" r="1.12" opacity="0.10">
      <animateTransform attributeName="transform" type="translate" values="0,0; -2,-5; 0,0" dur="14s" begin="0.72s" repeatCount="indefinite"/>
    </circle>
    <circle cx="637" cy="42" r="0.51" opacity="0.13">
      <animateTransform attributeName="transform" type="translate" values="0,0; 5,0; 0,0" dur="15s" begin="0.8999999999999999s" repeatCount="indefinite"/>
    </circle>
    <circle cx="135" cy="74" r="0.66" opacity="0.16">
      <animateTransform attributeName="transform" type="translate" values="0,0; 12,5; 0,0" dur="16s" begin="1.08s" repeatCount="indefinite"/>
    </circle>
    <circle cx="947" cy="56" r="0.82" opacity="0.19">
      <animateTransform attributeName="transform" type="translate" values="0,0; -17,-5; 0,0" dur="17s" begin="1.26s" repeatCount="indefinite"/>
    </circle>
    <circle cx="593" cy="85" r="0.97" opacity="0.22">
      <animateTransform attributeName="transform" type="translate" values="0,0; -10,0; 0,0" dur="18s" begin="1.44s" repeatCount="indefinite"/>
    </circle>
    <circle cx="313" cy="67" r="1.12" opacity="0.26">
      <animateTransform attributeName="transform" type="translate" values="0,0; -4,5; 0,0" dur="19s" begin="1.6199999999999999s" repeatCount="indefinite"/>
    </circle>
    <circle cx="107" cy="49" r="0.51" opacity="0.10">
      <animateTransform attributeName="transform" type="translate" values="0,0; 2,-4; 0,0" dur="20s" begin="1.7999999999999998s" repeatCount="indefinite"/>
    </circle>
    <circle cx="1215" cy="41" r="0.66" opacity="0.13">
      <animateTransform attributeName="transform" type="translate" values="0,0; 9,1; 0,0" dur="21s" begin="1.98s" repeatCount="indefinite"/>
    </circle>
    <circle cx="1157" cy="73" r="0.82" opacity="0.16">
      <animateTransform attributeName="transform" type="translate" values="0,0; 16,6; 0,0" dur="22s" begin="2.16s" repeatCount="indefinite"/>
    </circle>
    <circle cx="1173" cy="55" r="0.97" opacity="0.19">
      <animateTransform attributeName="transform" type="translate" values="0,0; -13,-4; 0,0" dur="23s" begin="2.34s" repeatCount="indefinite"/>
    </circle>
    <circle cx="23" cy="87" r="1.12" opacity="0.22">
      <animateTransform attributeName="transform" type="translate" values="0,0; -6,1; 0,0" dur="24s" begin="2.52s" repeatCount="indefinite"/>
    </circle>
    <circle cx="187" cy="66" r="0.51" opacity="0.26">
      <animateTransform attributeName="transform" type="translate" values="0,0; 0,6; 0,0" dur="25s" begin="2.6999999999999997s" repeatCount="indefinite"/>
    </circle>
  </g>
  <circle cx="76" cy="68" r="4" fill="#500000">
    <animate attributeName="opacity" values="0.5;1;0.5" dur="3s" repeatCount="indefinite"/>
  </circle>
  <text x="92" y="68" fill="#1a0808" font-family="-apple-system, BlinkMacSystemFont, 'Segoe UI', Helvetica, Arial, sans-serif" font-size="15" font-weight="600">Cael Findley</text>
  <text x="92" y="86" fill="#500000" font-family="ui-monospace, SFMono-Regular, Menlo, Consolas, monospace" font-size="10" letter-spacing="1.5">GIG &apos;EM</text>
  <text x="1216" y="68" text-anchor="end" fill="#500000" font-family="ui-monospace, SFMono-Regular, Menlo, Consolas, monospace" font-size="11" font-weight="600" letter-spacing="1.5">TEXAS A&amp;M UNIVERSITY</text>
  <text x="1216" y="86" text-anchor="end" fill="#8a5a5e" font-family="ui-monospace, SFMono-Regular, Menlo, Consolas, monospace" font-size="10" letter-spacing="1">COMPUTER SCIENCE</text>

  </g>
</svg>
